<svg xmlns="http://www.w3.org/2000/svg" fill="none" viewBox="0 0 375 240" height="240" width="375">
<g clip-path="url(#clip0_12387_198731)">
<rect fill="url(#paint0_linear_12387_198731)" height="147" width="54" y="57" x="105" opacity="0.4"></rect>
<rect fill="#ADB2B9" rx="27" height="54" width="54" y="31" x="105"></rect>
<path fill="white" d="M144.944 46.375L135.675 55.6434L129.287 49.2873L117.777 60.7981L120.801 63.8229L129.295 55.3293L135.683 61.6855L147.968 49.3998L144.944 46.375Z"></path>
<path fill="white" d="M119.278 66.666H123.555V70.9436H119.278V66.666Z"></path>
<path fill="white" d="M126.407 66.666H130.685V70.9436H126.407V66.666Z"></path>
<path fill="white" d="M133.536 66.666H137.814V70.9436H133.536V66.666Z"></path>
<path fill="white" d="M140.666 66.666H144.943V70.9436H140.666V66.666Z"></path>
<circle fill="#474D57" r="13.6764" cy="147.612" cx="258.681"></circle>
<circle fill="#474D57" r="11.4617" cy="157.384" cx="256.466"></circle>
<circle fill="#474D57" r="11.4617" cy="160.435" cx="269.716"></circle>
<path fill="#474D57" d="M295.671 163.962C295.671 169.42 291.247 173.844 285.789 173.844C280.331 173.844 275.906 169.42 275.906 163.962C275.906 158.504 280.331 154.079 285.789 154.079C291.247 154.079 295.671 158.504 295.671 163.962Z"></path>
<circle fill="#474D57" r="10.7658" cy="153.195" cx="275.023"></circle>
<ellipse fill="#E8A37D" transform="scale(1.00102 0.998981) rotate(-90 241.704 145.637)" ry="14.0243" rx="14.0386" cy="145.637" cx="241.704"></ellipse>
<path fill="#474D57" d="M251.629 155.563C252.932 154.261 253.964 152.715 254.669 151.013C255.373 149.311 255.735 147.486 255.734 145.644C255.733 143.801 255.369 141.976 254.663 140.273C253.957 138.571 252.923 137.023 251.619 135.72C250.316 134.416 248.768 133.382 247.065 132.676C245.363 131.97 243.538 131.606 241.695 131.605C239.853 131.604 238.028 131.966 236.326 132.67C234.624 133.375 233.078 134.407 231.776 135.71L241.703 145.636L251.629 155.563Z"></path>
<path stroke-width="26.3803" stroke="#E8A37D" d="M237.155 199.943L201.687 350.912"></path>
<path stroke-width="26.3803" stroke="#E8A37D" d="M276.719 351.12L247.769 203.773"></path>
<path fill="#E8A37D" d="M222.755 187.853C228.716 187.86 233.553 183.034 233.56 177.074C233.567 171.114 228.742 166.276 222.781 166.269L184.13 166.222L199.443 133.186L194.939 131.098L195.101 130.737L185.731 103.802C185.55 103.281 184.866 103.163 184.52 103.594L182.348 106.307C180.148 109.052 179.06 112.523 179.298 116.033L179.847 124.137L164.367 157.537C157.826 171.649 168.119 187.787 183.674 187.806L222.755 187.853Z" clip-rule="evenodd" fill-rule="evenodd"></path>
<path fill="#F0B90B" d="M222.754 187.852C228.714 187.86 233.551 183.034 233.559 177.073C233.566 171.113 228.74 166.276 222.78 166.269L222.754 187.852ZM183.684 177.014L183.697 166.222L183.684 177.014ZM222.78 166.269L183.697 166.222L183.671 187.806L222.754 187.852L222.78 166.269ZM183.947 166.613L196.561 139.396L176.978 130.32L164.364 157.537L183.947 166.613ZM183.697 166.222C183.676 166.222 183.691 166.22 183.73 166.23C183.768 166.24 183.807 166.256 183.841 166.276C183.906 166.312 183.926 166.344 183.929 166.349C183.933 166.354 183.953 166.386 183.959 166.46C183.962 166.499 183.96 166.541 183.953 166.58C183.946 166.62 183.938 166.633 183.947 166.613L164.364 157.537C157.824 171.649 168.117 187.787 183.671 187.806L183.697 166.222Z"></path>
<path fill="#E8A37D" d="M256.431 187.837C250.471 187.837 245.639 183.005 245.639 177.045C245.639 171.085 250.471 166.253 256.431 166.253L301.103 166.253L285.8 133.236L290.038 131.272L289.401 127.337L305.422 103.745C305.732 103.289 306.424 103.352 306.646 103.857L308.043 107.04C309.456 110.261 309.609 113.896 308.471 117.224L305.795 125.05L320.867 157.568C327.412 171.69 317.1 187.837 301.534 187.837L256.431 187.837Z" clip-rule="evenodd" fill-rule="evenodd"></path>
<path fill="#F0B90B" d="M256.431 187.837C250.471 187.837 245.639 183.005 245.639 177.045C245.639 171.085 250.471 166.253 256.431 166.253L256.431 187.837ZM311.076 162.106L320.868 157.568L311.076 162.106ZM256.431 166.253L301.535 166.253L301.535 187.837L256.431 187.837L256.431 166.253ZM301.285 166.644L287.708 137.351L307.291 128.274L320.868 157.568L301.285 166.644ZM301.535 166.253C301.557 166.253 301.542 166.251 301.502 166.261C301.464 166.272 301.425 166.288 301.391 166.307C301.326 166.344 301.306 166.375 301.303 166.38C301.299 166.385 301.279 166.417 301.273 166.491C301.27 166.53 301.272 166.572 301.279 166.611C301.286 166.652 301.294 166.664 301.285 166.644L320.868 157.568C327.413 171.691 317.1 187.837 301.535 187.837L301.535 166.253Z"></path>
<path stroke-linecap="round" stroke-width="7.01961" stroke="#E8A37D" d="M198.923 126.3L194.812 134.611"></path>
<path stroke-linecap="round" stroke-width="7.01961" stroke="#E8A37D" d="M287.126 122.349L288.92 131.646"></path>
<path fill="#474D57" d="M285.959 329.71L262.18 209.47H220.954L193.125 329.71H285.959Z"></path>
<rect fill="#FCEA9C" height="111.692" width="26.803" y="166.259" x="227.932"></rect>
<path fill="#F0B90B" d="M192.025 309.008L215.909 166.259H228.989V309.008H192.025Z"></path>
<path fill="#F0B90B" d="M289.392 309.008L265.508 166.259H251.809V309.008H289.392Z"></path>
<path fill="#F8D33A" d="M251.809 177.702C250.306 177.702 248.867 177.406 247.479 176.83C246.09 176.255 244.829 175.413 243.766 174.35C242.704 173.287 241.861 172.026 241.286 170.638C240.711 169.249 240.415 167.761 240.415 166.259L251.809 166.259L251.809 177.702Z"></path>
<path fill="#F8D33A" d="M228.989 177.701C230.491 177.701 231.964 177.405 233.352 176.83C234.74 176.254 236.002 175.412 237.064 174.349C238.127 173.287 238.97 172.025 239.545 170.637C240.12 169.248 240.416 167.76 240.416 166.258L228.989 166.258L228.989 177.701Z"></path>
<rect fill="#5E6673" height="25.8837" width="14.5201" y="199.611" x="152.67"></rect>
<rect fill="#AEB4BC" height="73.2683" width="107.954" y="143.722" x="105"></rect>
<rect fill="#D9D9D9" transform="matrix(1 0 0 -1 134.097 228.438)" height="5.33626" width="51.6661"></rect>
<rect fill="#D9D9D9" transform="rotate(-45 151.974 180.669)" height="10.1779" width="10.1779" y="180.669" x="151.974"></rect>
<path fill="#76808F" d="M208.475 49L267.078 49.0802V102.966L251.233 102.886L251.233 117L242.347 108.136L237.177 102.886H208.475V49Z" clip-rule="evenodd" fill-rule="evenodd" opacity="0.5"></path>
<path fill="#F8D33A" d="M253.966 75.038C253.966 83.5429 247.072 90.4374 238.567 90.4374C230.062 90.4374 223.168 83.5429 223.168 75.038C223.168 66.5332 230.062 59.6387 238.567 59.6387C247.072 59.6387 253.966 66.5332 253.966 75.038Z" clip-rule="evenodd" fill-rule="evenodd"></path>
<rect fill="white" transform="rotate(-45 230.401 75.0381)" height="11.5495" width="11.5495" y="75.0381" x="230.401"></rect>
<rect fill="url(#paint1_linear_12387_198731)" height="147" width="54" y="114" x="30" opacity="0.4"></rect>
<rect fill="#ADB2B9" rx="27" height="54" width="54" y="88" x="30"></rect>
<path fill="white" d="M52.9664 104H60.6331V127H52.9664V104ZM43 114.733H49.9V127H43V114.733ZM70.5997 111.667H63.6997V127H70.5997V111.667Z" clip-rule="evenodd" fill-rule="evenodd"></path>
</g>
<defs>
<linearGradient gradientUnits="userSpaceOnUse" y2="204" x2="132" y1="57" x1="132" id="paint0_linear_12387_198731">
<stop stop-color="#76808F"></stop>
<stop stop-opacity="0" stop-color="#76808F" offset="1"></stop>
</linearGradient>
<linearGradient gradientUnits="userSpaceOnUse" y2="261" x2="57" y1="114" x1="57" id="paint1_linear_12387_198731">
<stop stop-color="#AEB4BC"></stop>
<stop stop-opacity="0" stop-color="#AEB4BC" offset="1"></stop>
</linearGradient>
<clipPath id="clip0_12387_198731">
<rect fill="white" height="240" width="375"></rect>
</clipPath>
</defs>
</svg>
